<svg xmlns="http://www.w3.org/2000/svg" version="1.1" xmlns:xlink="http://www.w3.org/1999/xlink" xmlns:svgjs="http://svgjs.dev/svgjs" width="1500" height="1500" viewBox="0 0 1500 1500"><rect width="1500" height="1500" fill="#ffffff"></rect><g transform="matrix(0.6666666666666666,0,0,0.6666666666666666,249.78425655976667,249.78425655976673)"><svg viewBox="0 0 343 343" data-background-color="#ffffff" preserveAspectRatio="xMidYMid meet" height="1500" width="1500" xmlns="http://www.w3.org/2000/svg" xmlns:xlink="http://www.w3.org/1999/xlink"><g id="tight-bounds" transform="matrix(1,0,0,1,0.0740000000000407,0.07400000000001228)"><svg viewBox="0 0 342.85155851775386 342.85155851775386" height="342.85155851775386" width="342.85155851775386"><g><svg></svg></g><g><svg viewBox="0 0 342.85155851775386 342.85155851775386" height="342.85155851775386" width="342.85155851775386"><g><path d="M0 171.426c0-94.676 76.75-171.426 171.426-171.426 94.676 0 171.426 76.75 171.426 171.426 0 94.676-76.75 171.426-171.426 171.426-94.676 0-171.426-76.75-171.426-171.426zM171.426 340.861c93.577 0 169.436-75.859 169.435-169.435 0-93.577-75.859-169.436-169.435-169.436-93.577 0-169.436 75.859-169.436 169.436 0 93.577 75.859 169.436 169.436 169.435z" data-fill-palette-color="tertiary" fill="#010c80" stroke="transparent"></path><ellipse rx="164.56874808852186" ry="164.56874808852186" cx="171.42577925887693" cy="171.42577925887693" fill="#010c80" stroke="transparent" stroke-width="0" fill-opacity="1" data-fill-palette-color="tertiary"></ellipse></g><g transform="matrix(1,0,0,1,64.84655864529837,131.66296859428024)"><svg viewBox="0 0 213.1584412271571 79.5256213291934" height="79.5256213291934" width="213.1584412271571"><g><svg viewBox="0 0 213.1584412271571 79.5256213291934" height="79.5256213291934" width="213.1584412271571"><g><svg viewBox="0 0 353.5311646333057 131.8961865401138" height="79.5256213291934" width="213.1584412271571"><g transform="matrix(1,0,0,1,140.37272340614862,0)"><svg viewBox="0 0 213.1584412271571 131.8961865401138" height="131.8961865401138" width="213.1584412271571"><g id="textblocktransform"><svg viewBox="0 0 213.1584412271571 131.8961865401138" height="131.8961865401138" width="213.1584412271571" id="textblock"><g><svg viewBox="0 0 213.1584412271571 116.71864916924872" height="116.71864916924872" width="213.1584412271571"><g transform="matrix(1,0,0,1,0,0)"><svg width="213.1584412271571" viewBox="0.1999999999999975 -36.5 281.3 138.3" height="116.71864916924872" data-palette-color="#ffffff"><svg></svg><svg></svg><svg></svg><g class="wordmark-text-0" data-fill-palette-color="quaternary" id="text-0"><path d="M9.6 0h-5.6v-35.5h5.6zM25.95 0.5v0c-2.2 0-4.283-0.36-6.25-1.08-1.967-0.713-3.65-1.787-5.05-3.22v0l2.05-3.7c1.5 1.333 3.01 2.3 4.53 2.9 1.513 0.6 3.02 0.9 4.52 0.9v0c1.533 0 2.783-0.293 3.75-0.88 0.967-0.58 1.45-1.437 1.45-2.57v0c0-0.833-0.25-1.45-0.75-1.85-0.5-0.4-1.223-0.75-2.17-1.05-0.953-0.3-2.097-0.633-3.43-1v0c-1.867-0.567-3.433-1.16-4.7-1.78-1.267-0.613-2.217-1.37-2.85-2.27-0.633-0.9-0.95-2.05-0.95-3.45v0c0-1.7 0.433-3.15 1.3-4.35 0.867-1.2 2.077-2.117 3.63-2.75 1.547-0.633 3.337-0.95 5.37-0.95v0c1.9 0 3.66 0.29 5.28 0.87 1.613 0.587 3.037 1.497 4.27 2.73v0l-2.35 3.65c-1.167-1.067-2.357-1.85-3.57-2.35-1.22-0.5-2.53-0.75-3.93-0.75v0c-0.8 0-1.567 0.09-2.3 0.27-0.733 0.187-1.34 0.52-1.82 1-0.487 0.487-0.73 1.163-0.73 2.03v0c0 0.7 0.2 1.267 0.6 1.7 0.4 0.433 1 0.8 1.8 1.1 0.8 0.3 1.783 0.633 2.95 1v0c2.033 0.6 3.767 1.19 5.2 1.77 1.433 0.587 2.543 1.337 3.33 2.25 0.78 0.92 1.17 2.18 1.17 3.78v0c0 2.533-0.94 4.507-2.82 5.92-1.887 1.42-4.397 2.13-7.53 2.13zM64.65-15.95v15.95h-5.5v-14.65c0-2.367-0.433-4.133-1.3-5.3-0.867-1.167-2.083-1.75-3.65-1.75v0c-0.967 0-1.967 0.267-3 0.8-1.033 0.533-1.95 1.257-2.75 2.17-0.8 0.92-1.383 1.98-1.75 3.18v0 15.55h-5.5v-36.5h5.5v15.6c1-1.767 2.367-3.16 4.1-4.18 1.733-1.013 3.6-1.52 5.6-1.52v0c1.633 0 2.983 0.283 4.05 0.85 1.067 0.567 1.91 1.34 2.53 2.32 0.613 0.987 1.047 2.12 1.3 3.4 0.247 1.287 0.37 2.647 0.37 4.08zM94.8-5.35l8.35-20.8h5.25l-11 26.15h-4.7l-4.7-11.8-4.7 11.8h-4.7l-11.05-26.15h5.25l8.4 20.8 3.7-9.65-4.5-11.1h4.65l2.95 8.15 2.9-8.15h4.65l-4.45 11.1zM109.5-7.65v0c0-1.667 0.473-3.127 1.42-4.38 0.953-1.247 2.263-2.213 3.93-2.9 1.667-0.68 3.6-1.02 5.8-1.02v0c1.167 0 2.357 0.083 3.57 0.25 1.22 0.167 2.297 0.433 3.23 0.8v0-1.65c0-1.833-0.55-3.267-1.65-4.3-1.1-1.033-2.683-1.55-4.75-1.55v0c-1.467 0-2.85 0.257-4.15 0.77-1.3 0.52-2.683 1.247-4.15 2.18v0l-1.85-3.7c1.733-1.167 3.477-2.033 5.23-2.6 1.747-0.567 3.587-0.85 5.52-0.85v0c3.5 0 6.26 0.923 8.28 2.77 2.013 1.853 3.02 4.48 3.02 7.88v0 9.75c0 0.633 0.11 1.083 0.33 1.35 0.213 0.267 0.587 0.417 1.12 0.45v0 4.4c-0.5 0.1-0.95 0.167-1.35 0.2-0.4 0.033-0.733 0.05-1 0.05v0c-1.167 0-2.05-0.283-2.65-0.85-0.6-0.567-0.95-1.233-1.05-2v0l-0.15-1.5c-1.133 1.467-2.583 2.6-4.35 3.4-1.767 0.8-3.55 1.2-5.35 1.2v0c-1.733 0-3.283-0.36-4.65-1.08-1.367-0.713-2.433-1.687-3.2-2.92-0.767-1.233-1.15-2.617-1.15-4.15zM126.15-6.05v0c0.4-0.433 0.717-0.867 0.95-1.3 0.233-0.433 0.35-0.817 0.35-1.15v0-3c-0.933-0.367-1.917-0.643-2.95-0.83-1.033-0.18-2.05-0.27-3.05-0.27v0c-2 0-3.627 0.4-4.88 1.2-1.247 0.8-1.87 1.9-1.87 3.3v0c0 0.767 0.207 1.5 0.62 2.2 0.42 0.7 1.023 1.267 1.81 1.7 0.78 0.433 1.753 0.65 2.92 0.65v0c1.2 0 2.35-0.233 3.45-0.7 1.1-0.467 1.983-1.067 2.65-1.8zM154.3-26.35v4.95c-2.133 0.033-4.023 0.517-5.67 1.45-1.653 0.933-2.83 2.25-3.53 3.95v0 16h-5.5v-26.15h5.1v5.85c0.9-1.8 2.083-3.243 3.55-4.33 1.467-1.08 3.017-1.67 4.65-1.77v0c0.333 0 0.61 0 0.83 0 0.213 0 0.403 0.017 0.57 0.05z" fill="#ffffff" fill-rule="nonzero" stroke="none" stroke-width="1" stroke-linecap="butt" stroke-linejoin="miter" stroke-miterlimit="10" stroke-dasharray="" stroke-dashoffset="0" font-family="none" font-weight="none" font-size="none" text-anchor="none" style="mix-blend-mode: normal" data-fill-palette-color="quaternary" opacity="1"></path><path transform="translate(0,50.65)" d="M9.6-4.95h18.75v4.95h-24.35v-35.5h23.9v4.95h-18.3v10.1h15.85v4.65h-15.85zM56.7-15.95v15.95h-5.5v-14.65c0-2.433-0.39-4.217-1.17-5.35-0.787-1.133-1.947-1.7-3.48-1.7v0c-1.067 0-2.123 0.267-3.17 0.8-1.053 0.533-1.997 1.257-2.83 2.17-0.833 0.92-1.433 1.98-1.8 3.18v0 15.55h-5.5v-26.15h5v5.25c0.667-1.167 1.543-2.177 2.63-3.03 1.08-0.847 2.303-1.503 3.67-1.97 1.367-0.467 2.817-0.7 4.35-0.7v0c1.567 0 2.86 0.283 3.88 0.85 1.013 0.567 1.813 1.34 2.4 2.32 0.58 0.987 0.98 2.12 1.2 3.4 0.213 1.287 0.32 2.647 0.32 4.08zM73.45 0.25v0c-1.767 0-3.383-0.36-4.85-1.08-1.467-0.713-2.723-1.687-3.77-2.92-1.053-1.233-1.87-2.65-2.45-4.25-0.587-1.6-0.88-3.283-0.88-5.05v0c0-1.867 0.3-3.617 0.9-5.25 0.6-1.633 1.443-3.077 2.53-4.33 1.08-1.247 2.353-2.22 3.82-2.92 1.467-0.7 3.1-1.05 4.9-1.05v0c2.1 0 3.943 0.5 5.53 1.5 1.58 1 2.887 2.3 3.92 3.9v0-4.95h4.85v25.4c0 2.533-0.607 4.683-1.82 6.45-1.22 1.767-2.88 3.117-4.98 4.05-2.1 0.933-4.467 1.4-7.1 1.4v0c-2.9 0-5.3-0.5-7.2-1.5-1.9-1-3.517-2.367-4.85-4.1v0l3.1-2.9c1 1.4 2.293 2.467 3.88 3.2 1.58 0.733 3.27 1.1 5.07 1.1v0c1.5 0 2.893-0.273 4.18-0.82 1.28-0.553 2.303-1.403 3.07-2.55 0.767-1.153 1.15-2.597 1.15-4.33v0-4c-0.933 1.567-2.217 2.793-3.85 3.68-1.633 0.88-3.35 1.32-5.15 1.32zM75.25-4.2v0c0.833 0 1.633-0.143 2.4-0.43 0.767-0.28 1.477-0.663 2.13-1.15 0.647-0.48 1.203-1.03 1.67-1.65 0.467-0.613 0.8-1.27 1-1.97v0-6.85c-0.433-1.133-1.05-2.127-1.85-2.98-0.8-0.847-1.7-1.503-2.7-1.97-1-0.467-2.017-0.7-3.05-0.7v0c-1.2 0-2.273 0.257-3.22 0.77-0.953 0.52-1.763 1.207-2.43 2.06-0.667 0.847-1.183 1.803-1.55 2.87-0.367 1.067-0.55 2.167-0.55 3.3v0c0 1.2 0.21 2.317 0.63 3.35 0.413 1.033 0.987 1.957 1.72 2.77 0.733 0.82 1.6 1.453 2.6 1.9 1 0.453 2.067 0.68 3.2 0.68zM100.05 0h-5.5v-26.15h5.5zM100.05-30.45h-5.5v-6.05h5.5zM130.1-15.95v15.95h-5.5v-14.65c0-2.433-0.393-4.217-1.18-5.35-0.78-1.133-1.937-1.7-3.47-1.7v0c-1.067 0-2.127 0.267-3.18 0.8-1.047 0.533-1.987 1.257-2.82 2.17-0.833 0.92-1.433 1.98-1.8 3.18v0 15.55h-5.5v-26.15h5v5.25c0.667-1.167 1.54-2.177 2.62-3.03 1.087-0.847 2.313-1.503 3.68-1.97 1.367-0.467 2.817-0.7 4.35-0.7v0c1.567 0 2.857 0.283 3.87 0.85 1.02 0.567 1.82 1.34 2.4 2.32 0.587 0.987 0.99 2.12 1.21 3.4 0.213 1.287 0.32 2.647 0.32 4.08zM148.35 0.5v0c-2.033 0-3.877-0.36-5.53-1.08-1.647-0.713-3.07-1.697-4.27-2.95-1.2-1.247-2.127-2.68-2.78-4.3-0.647-1.613-0.97-3.337-0.97-5.17v0c0-2.467 0.567-4.727 1.7-6.78 1.133-2.047 2.717-3.697 4.75-4.95 2.033-1.247 4.417-1.87 7.15-1.87v0c2.733 0 5.09 0.623 7.07 1.87 1.987 1.253 3.53 2.897 4.63 4.93 1.1 2.033 1.65 4.217 1.65 6.55v0c0 0.4-0.017 0.773-0.05 1.12-0.033 0.353-0.067 0.647-0.1 0.88v0h-20.95c0.1 1.533 0.523 2.873 1.27 4.02 0.753 1.153 1.713 2.053 2.88 2.7 1.167 0.653 2.417 0.98 3.75 0.98v0c1.467 0 2.857-0.367 4.17-1.1 1.32-0.733 2.213-1.7 2.68-2.9v0l4.7 1.35c-0.567 1.267-1.427 2.407-2.58 3.42-1.147 1.02-2.503 1.82-4.07 2.4-1.567 0.587-3.267 0.88-5.1 0.88zM140.5-14.9v0h15.8c-0.1-1.5-0.527-2.827-1.28-3.98-0.747-1.147-1.697-2.047-2.85-2.7-1.147-0.647-2.42-0.97-3.82-0.97v0c-1.367 0-2.627 0.323-3.78 0.97-1.147 0.653-2.087 1.553-2.82 2.7-0.733 1.153-1.15 2.48-1.25 3.98zM178.1 0.5v0c-2.033 0-3.877-0.36-5.53-1.08-1.647-0.713-3.07-1.697-4.27-2.95-1.2-1.247-2.127-2.68-2.78-4.3-0.647-1.613-0.97-3.337-0.97-5.17v0c0-2.467 0.567-4.727 1.7-6.78 1.133-2.047 2.717-3.697 4.75-4.95 2.033-1.247 4.417-1.87 7.15-1.87v0c2.733 0 5.09 0.623 7.07 1.87 1.987 1.253 3.53 2.897 4.63 4.93 1.1 2.033 1.65 4.217 1.65 6.55v0c0 0.4-0.017 0.773-0.05 1.12-0.033 0.353-0.067 0.647-0.1 0.88v0h-20.95c0.1 1.533 0.523 2.873 1.27 4.02 0.753 1.153 1.713 2.053 2.88 2.7 1.167 0.653 2.417 0.98 3.75 0.98v0c1.467 0 2.857-0.367 4.17-1.1 1.32-0.733 2.213-1.7 2.68-2.9v0l4.7 1.35c-0.567 1.267-1.427 2.407-2.58 3.42-1.147 1.02-2.503 1.82-4.07 2.4-1.567 0.587-3.267 0.88-5.1 0.88zM170.25-14.9v0h15.8c-0.1-1.5-0.527-2.827-1.28-3.98-0.747-1.147-1.697-2.047-2.85-2.7-1.147-0.647-2.42-0.97-3.82-0.97v0c-1.367 0-2.627 0.323-3.78 0.97-1.147 0.653-2.087 1.553-2.82 2.7-0.733 1.153-1.15 2.48-1.25 3.98zM210.7-26.35v4.95c-2.133 0.033-4.027 0.517-5.68 1.45-1.647 0.933-2.82 2.25-3.52 3.95v0 16h-5.5v-26.15h5.1v5.85c0.9-1.8 2.083-3.243 3.55-4.33 1.467-1.08 3.017-1.67 4.65-1.77v0c0.333 0 0.61 0 0.83 0 0.213 0 0.403 0.017 0.57 0.05zM220.2 0h-5.5v-26.15h5.5zM220.2-30.45h-5.5v-6.05h5.5zM250.25-15.95v15.95h-5.5v-14.65c0-2.433-0.393-4.217-1.18-5.35-0.78-1.133-1.937-1.7-3.47-1.7v0c-1.067 0-2.127 0.267-3.18 0.8-1.047 0.533-1.987 1.257-2.82 2.17-0.833 0.92-1.433 1.98-1.8 3.18v0 15.55h-5.5v-26.15h5v5.25c0.667-1.167 1.54-2.177 2.62-3.03 1.087-0.847 2.313-1.503 3.68-1.97 1.367-0.467 2.817-0.7 4.35-0.7v0c1.567 0 2.857 0.283 3.87 0.85 1.02 0.567 1.82 1.34 2.4 2.32 0.587 0.987 0.987 2.12 1.2 3.4 0.22 1.287 0.33 2.647 0.33 4.08zM267 0.25v0c-1.767 0-3.383-0.36-4.85-1.08-1.467-0.713-2.727-1.687-3.78-2.92-1.047-1.233-1.863-2.65-2.45-4.25-0.58-1.6-0.87-3.283-0.87-5.05v0c0-1.867 0.3-3.617 0.9-5.25 0.6-1.633 1.44-3.077 2.52-4.33 1.087-1.247 2.363-2.22 3.83-2.92 1.467-0.7 3.1-1.05 4.9-1.05v0c2.1 0 3.94 0.5 5.52 1.5 1.587 1 2.897 2.3 3.93 3.9v0-4.95h4.85v25.4c0 2.533-0.61 4.683-1.83 6.45-1.213 1.767-2.87 3.117-4.97 4.05-2.1 0.933-4.467 1.4-7.1 1.4v0c-2.9 0-5.3-0.5-7.2-1.5-1.9-1-3.517-2.367-4.85-4.1v0l3.1-2.9c1 1.4 2.29 2.467 3.87 3.2 1.587 0.733 3.28 1.1 5.08 1.1v0c1.5 0 2.89-0.273 4.17-0.82 1.287-0.553 2.313-1.403 3.08-2.55 0.767-1.153 1.15-2.597 1.15-4.33v0-4c-0.933 1.567-2.217 2.793-3.85 3.68-1.633 0.88-3.35 1.32-5.15 1.32zM268.8-4.2v0c0.833 0 1.633-0.143 2.4-0.43 0.767-0.28 1.473-0.663 2.12-1.15 0.653-0.48 1.213-1.03 1.68-1.65 0.467-0.613 0.8-1.27 1-1.97v0-6.85c-0.433-1.133-1.05-2.127-1.85-2.98-0.8-0.847-1.7-1.503-2.7-1.97-1-0.467-2.017-0.7-3.05-0.7v0c-1.2 0-2.277 0.257-3.23 0.77-0.947 0.52-1.753 1.207-2.42 2.06-0.667 0.847-1.183 1.803-1.55 2.87-0.367 1.067-0.55 2.167-0.55 3.3v0c0 1.2 0.207 2.317 0.62 3.35 0.42 1.033 0.997 1.957 1.73 2.77 0.733 0.82 1.6 1.453 2.6 1.9 1 0.453 2.067 0.68 3.2 0.68z" fill="#ffffff" fill-rule="nonzero" stroke="none" stroke-width="1" stroke-linecap="butt" stroke-linejoin="miter" stroke-miterlimit="10" stroke-dasharray="" stroke-dashoffset="0" font-family="none" font-weight="none" font-size="none" text-anchor="none" style="mix-blend-mode: normal" data-fill-palette-color="quaternary" opacity="1"></path><path transform="translate(0,101.3)" d="M22.7-19.55l-6.1-15.8h5.25l4.4 12.05 4.45-12.05h5.25l-6.1 15.8 5.3 13.05 11.05-29h6.15l-14.55 35.5h-4.85l-6.65-15.9-6.7 15.9h-4.9l-14.5-35.5h6.1l11.1 29zM64.15 0.5v0c-2.067 0-3.917-0.36-5.55-1.08-1.633-0.713-3.04-1.703-4.22-2.97-1.187-1.267-2.097-2.71-2.73-4.33-0.633-1.613-0.95-3.337-0.95-5.17v0c0-1.833 0.317-3.567 0.95-5.2 0.633-1.633 1.543-3.077 2.73-4.33 1.18-1.247 2.597-2.23 4.25-2.95 1.647-0.713 3.487-1.07 5.52-1.07v0c2.033 0 3.877 0.357 5.53 1.07 1.647 0.72 3.063 1.703 4.25 2.95 1.18 1.253 2.087 2.697 2.72 4.33 0.633 1.633 0.95 3.367 0.95 5.2v0c0 1.833-0.317 3.557-0.95 5.17-0.633 1.62-1.54 3.063-2.72 4.33-1.187 1.267-2.603 2.257-4.25 2.97-1.653 0.72-3.497 1.08-5.53 1.08zM56.35-13v0c0 1.667 0.35 3.167 1.05 4.5 0.7 1.333 1.633 2.383 2.8 3.15 1.167 0.767 2.483 1.15 3.95 1.15v0c1.433 0 2.743-0.393 3.93-1.18 1.18-0.78 2.12-1.847 2.82-3.2 0.7-1.347 1.05-2.837 1.05-4.47v0c0-1.667-0.35-3.167-1.05-4.5-0.7-1.333-1.64-2.393-2.82-3.18-1.187-0.78-2.497-1.17-3.93-1.17v0c-1.467 0-2.783 0.4-3.95 1.2-1.167 0.8-2.1 1.857-2.8 3.17-0.7 1.32-1.05 2.83-1.05 4.53zM97.2-26.35v4.95c-2.133 0.033-4.023 0.517-5.67 1.45-1.653 0.933-2.83 2.25-3.53 3.95v0 16h-5.5v-26.15h5.1v5.85c0.9-1.8 2.083-3.243 3.55-4.33 1.467-1.08 3.017-1.67 4.65-1.77v0c0.333 0 0.61 0 0.83 0 0.213 0 0.403 0.017 0.57 0.05zM125.25 0h-5.85l-8.4-12.05-4.3 4.1v7.95h-5.5v-36.5h5.5v23l12.1-12.6h5.9l-10.15 10.95zM137.8 0.5v0c-2.2 0-4.283-0.36-6.25-1.08-1.967-0.713-3.65-1.787-5.05-3.22v0l2.05-3.7c1.5 1.333 3.01 2.3 4.53 2.9 1.513 0.6 3.02 0.9 4.52 0.9v0c1.533 0 2.783-0.293 3.75-0.88 0.967-0.58 1.45-1.437 1.45-2.57v0c0-0.833-0.25-1.45-0.75-1.85-0.5-0.4-1.223-0.75-2.17-1.05-0.953-0.3-2.097-0.633-3.43-1v0c-1.867-0.567-3.433-1.16-4.7-1.78-1.267-0.613-2.217-1.37-2.85-2.27-0.633-0.9-0.95-2.05-0.95-3.45v0c0-1.7 0.433-3.15 1.3-4.35 0.867-1.2 2.077-2.117 3.63-2.75 1.547-0.633 3.337-0.95 5.37-0.95v0c1.9 0 3.66 0.29 5.28 0.87 1.613 0.587 3.037 1.497 4.27 2.73v0l-2.35 3.65c-1.167-1.067-2.357-1.85-3.57-2.35-1.22-0.5-2.53-0.75-3.93-0.75v0c-0.8 0-1.567 0.09-2.3 0.27-0.733 0.187-1.34 0.52-1.82 1-0.487 0.487-0.73 1.163-0.73 2.03v0c0 0.7 0.2 1.267 0.6 1.7 0.4 0.433 1 0.8 1.8 1.1 0.8 0.3 1.783 0.633 2.95 1v0c2.033 0.6 3.767 1.19 5.2 1.77 1.433 0.587 2.543 1.337 3.33 2.25 0.78 0.92 1.17 2.18 1.17 3.78v0c0 2.533-0.94 4.507-2.82 5.92-1.887 1.42-4.397 2.13-7.53 2.13z" fill="#ffffff" fill-rule="nonzero" stroke="none" stroke-width="1" stroke-linecap="butt" stroke-linejoin="miter" stroke-miterlimit="10" stroke-dasharray="" stroke-dashoffset="0" font-family="none" font-weight="none" font-size="none" text-anchor="none" style="mix-blend-mode: normal" data-fill-palette-color="quaternary" opacity="1"></path></g></svg></g></svg></g><g transform="matrix(1,0,0,1,0,125.35945589701424)"><svg viewBox="0 0 125.14532084446394 6.536730643099559" height="6.536730643099559" width="125.14532084446394"><g transform="matrix(1,0,0,1,0,0)"><svg width="125.14532084446394" viewBox="5.3 -41.94 1025.4 53.559999999999995" height="6.536730643099559" data-palette-color="#ffffff"><path d="M9.35-1.73L9.35-1.73 9.35 11.11 5.3 11.11 5.3-29.05 8.59-29.05 9.06-26.05Q11.91-28.2 16.5-29.2L16.5-29.2Q18.16-29.54 20.12-29.54 22.07-29.54 23.57-29.03 25.07-28.52 26.05-27.6 27.03-26.68 27.56-25.42 28.1-24.15 28.37-22.66L28.37-22.66Q28.71-20.61 28.71-16.11L28.71-16.11 28.71-15.55Q28.71-9.84 28.32-7.64 27.93-5.44 27.29-4.02 26.66-2.59 25.54-1.59L25.54-1.59Q23.22 0.49 18.36 0.49 13.5 0.49 9.35-1.73ZM9.35-22.92L9.35-5.08Q13.5-3.17 18.07-3.17L18.07-3.17Q21.04-3.17 22.41-4.27L22.41-4.27Q24.27-5.79 24.49-11.33L24.49-11.33Q24.56-13.16 24.56-15.53L24.56-15.53 24.56-16.06Q24.56-21.68 23.58-23.58L23.58-23.58Q22.49-25.76 19.04-25.76L19.04-25.76 18.68-25.76Q15.09-25.76 11.23-23.97L11.23-23.97Q10.11-23.46 9.35-22.92L9.35-22.92ZM41.65-36.01L41.65-36.01Q40.01-36.01 39.55-36.47L39.55-36.47Q38.82-37.23 38.82-38.56 38.82-39.89 38.97-40.47 39.13-41.04 39.45-41.36L39.45-41.36Q40.04-41.94 41.25-41.94 42.45-41.94 42.98-41.82 43.5-41.7 43.85-41.36L43.85-41.36Q44.43-40.77 44.43-39.44 44.43-38.11 44.3-37.54 44.16-36.96 43.85-36.62L43.85-36.62Q43.23-36.01 41.65-36.01ZM39.72 0L39.67-29.05 43.67-29.05 43.67 0 39.72 0ZM59.32-1.73L59.32-1.73 59.32 11.11 55.27 11.11 55.27-29.05 58.56-29.05 59.03-26.05Q61.88-28.2 66.47-29.2L66.47-29.2Q68.13-29.54 70.09-29.54 72.04-29.54 73.54-29.03 75.04-28.52 76.02-27.6 77-26.68 77.53-25.42 78.07-24.15 78.34-22.66L78.34-22.66Q78.68-20.61 78.68-16.11L78.68-16.11 78.68-15.55Q78.68-9.84 78.29-7.64 77.9-5.44 77.27-4.02 76.63-2.59 75.51-1.59L75.51-1.59Q73.19 0.49 68.33 0.49 63.47 0.49 59.32-1.73ZM59.32-22.92L59.32-5.08Q63.47-3.17 68.04-3.17L68.04-3.17Q71.02-3.17 72.38-4.27L72.38-4.27Q74.24-5.79 74.46-11.33L74.46-11.33Q74.53-13.16 74.53-15.53L74.53-15.53 74.53-16.06Q74.53-21.68 73.55-23.58L73.55-23.58Q72.46-25.76 69.01-25.76L69.01-25.76 68.65-25.76Q65.06-25.76 61.2-23.97L61.2-23.97Q60.08-23.46 59.32-22.92L59.32-22.92ZM110.27-5.03L111.47-1.54Q106.41 0.49 100.31 0.49L100.31 0.49Q96.77 0.49 94.3-0.24L94.3-0.24Q90.37-1.37 89.08-4.88L89.08-4.88Q87.88-8.18 87.88-14.65L87.88-14.65 87.88-15.89Q87.88-23.63 91.11-26.76L91.11-26.76Q94.01-29.54 100.8-29.54L100.8-29.54Q107.41-29.54 109.83-26.27L109.83-26.27Q111-24.68 111.38-22.42 111.76-20.17 111.76-18.12L111.76-18.12Q111.76-14.92 111.61-13.16L111.61-13.16Q108.17-13.01 105.44-13.01L105.44-13.01Q105.44-13.01 101.51-13.01L101.51-13.01Q95.35-13.01 92.03-13.55L92.03-13.55Q92.03-7.93 93.45-5.71L93.45-5.71Q95.18-3 100.36-3 105.53-3 110.27-5.03L110.27-5.03ZM92.03-16.41L107.63-16.41 107.63-18.75Q107.63-22.58 106.14-24.22L106.14-24.22Q104.48-26.05 100.41-26.05L100.41-26.05Q95.52-26.05 93.74-23.93L93.74-23.93Q92.03-21.9 92.03-16.41L92.03-16.41ZM138.29-2.71L138.29-2.71 137.78 0 134.34 0 134.34-41.55 138.39-41.94 138.39-26.27Q143.44-29.54 148.16-29.54L148.16-29.54Q154.7-29.54 156.46-25.51L156.46-25.51Q157.56-22.97 157.7-18.38L157.7-18.38Q157.75-16.16 157.75-13.5L157.75-13.5 157.75-11.55Q157.75-8.2 157.32-6.52 156.9-4.83 156.24-3.63 155.58-2.42 154.43-1.51L154.43-1.51Q151.94 0.49 147.3 0.49 142.66 0.49 138.29-2.71ZM138.39-23.05L138.39-5.91Q143.57-3.1 147.11-3.1L147.11-3.1 147.4-3.1Q151.57-3.1 152.77-5.42L152.77-5.42Q153.41-6.59 153.55-8.47 153.7-10.35 153.7-12.99L153.7-12.99 153.7-16.5Q153.7-21.95 152.45-23.83L152.45-23.83Q151.23-25.71 147.81-25.71L147.81-25.71 147.2-25.71Q144.15-25.71 140.12-23.9L140.12-23.9Q139.07-23.44 138.39-23.05L138.39-23.05ZM189.34-5.03L190.54-1.54Q185.48 0.49 179.38 0.49L179.38 0.49Q175.84 0.49 173.37-0.24L173.37-0.24Q169.44-1.37 168.15-4.88L168.15-4.88Q166.95-8.18 166.95-14.65L166.95-14.65 166.95-15.89Q166.95-23.63 170.18-26.76L170.18-26.76Q173.08-29.54 179.87-29.54L179.87-29.54Q186.48-29.54 188.9-26.27L188.9-26.27Q190.07-24.68 190.45-22.42 190.83-20.17 190.83-18.12L190.83-18.12Q190.83-14.92 190.68-13.16L190.68-13.16Q187.24-13.01 184.51-13.01L184.51-13.01Q184.51-13.01 180.58-13.01L180.58-13.01Q174.42-13.01 171.1-13.55L171.1-13.55Q171.1-7.93 172.52-5.71L172.52-5.71Q174.25-3 179.43-3 184.6-3 189.34-5.03L189.34-5.03ZM171.1-16.41L186.7-16.41 186.7-18.75Q186.7-22.58 185.21-24.22L185.21-24.22Q183.55-26.05 179.48-26.05L179.48-26.05Q174.59-26.05 172.81-23.93L172.81-23.93Q171.1-21.9 171.1-16.41L171.1-16.41ZM214.83-25.73L214.83-25.73Q210.07-25.73 205.13-22.92L205.13-22.92 205.13 0 201.08 0 201.08-29.05 204.65-29.05 205.04-26.05Q207.7-28.22 211.65-29.15L211.65-29.15Q213.26-29.54 215.44-29.54 217.61-29.54 219.27-29.04 220.93-28.54 221.91-27.44L221.91-27.44Q223.69-25.46 223.69-20.24L223.69-20.24 223.69 0 219.59 0 219.59-19.48Q219.59-23 218.9-24.01 218.22-25.02 217.28-25.38 216.34-25.73 214.83-25.73ZM253.84 0.1L253.25-3.25Q248.1 0.49 242.78 0.49L242.78 0.49Q236.89 0.49 234.94-3.83L234.94-3.83Q233.82-6.27 233.68-9 233.55-11.72 233.55-13.78 233.55-15.84 233.59-17.94 233.62-20.04 233.89-21.83 234.16-23.61 234.73-25.04 235.31-26.46 236.38-27.47L236.38-27.47Q238.6-29.54 243.72-29.54 248.83-29.54 252.96-27.76L252.96-27.76 252.96-41.55 257.01-41.94 257.01-13.35Q257.01-4.93 257.48-0.2L257.48-0.2 253.84 0.1ZM252.93-13.55L252.96-24.41Q248.56-25.88 244.46-25.88L244.46-25.88Q241.48-25.88 240.53-25.39 239.58-24.9 239.08-24.12 238.58-23.34 238.26-21.97L238.26-21.97Q237.7-19.41 237.7-13.53L237.7-13.53 237.7-12.99Q237.7-7.5 238.9-5.4L238.9-5.4Q240.19-3.17 243.71-3.17L243.71-3.17 244.07-3.17Q247.44-3.17 251.25-5.32L251.25-5.32Q252.3-5.91 253.06-6.49L253.06-6.49 253.06-6.54Q252.93-8.81 252.93-13.55L252.93-13.55ZM270.58-36.01L270.58-36.01Q268.95-36.01 268.48-36.47L268.48-36.47Q267.75-37.23 267.75-38.56 267.75-39.89 267.91-40.47 268.07-41.04 268.39-41.36L268.39-41.36Q268.97-41.94 270.18-41.94 271.39-41.94 271.91-41.82 272.44-41.7 272.78-41.36L272.78-41.36Q273.37-40.77 273.37-39.44 273.37-38.11 273.23-37.54 273.1-36.96 272.78-36.62L272.78-36.62Q272.17-36.01 270.58-36.01ZM268.65 0L268.61-29.05 272.61-29.05 272.61 0 268.65 0ZM298.1-25.73L298.1-25.73Q293.33-25.73 288.4-22.92L288.4-22.92 288.4 0 284.35 0 284.35-29.05 287.91-29.05 288.31-26.05Q290.97-28.22 294.92-29.15L294.92-29.15Q296.53-29.54 298.71-29.54 300.88-29.54 302.54-29.04 304.2-28.54 305.18-27.44L305.18-27.44Q306.96-25.46 306.96-20.24L306.96-20.24 306.96 0 302.86 0 302.86-19.48Q302.86-23 302.17-24.01 301.49-25.02 300.55-25.38 299.61-25.73 298.1-25.73ZM336.35-27.05L336.35-27.05 336.74-29.05 340.26-29.05 340.28-0.54Q340.28 5.74 337.81 8.59L337.81 8.59Q335.18 11.62 328.9 11.62L328.9 11.62Q324.02 11.62 320.24 10.3L320.24 10.3Q319.28 9.99 318.77 9.72L318.77 9.72 320.04 6.27Q320.48 6.42 321.33 6.75 322.19 7.08 323.39 7.4L323.39 7.4Q326.41 8.2 328.94 8.2 331.47 8.2 332.83 7.69 334.2 7.18 334.96 6.1L334.96 6.1Q336.23 4.3 336.23-0.46L336.23-0.46 336.23-2.78Q331.56 0.49 326.36 0.49L326.36 0.49Q320.29 0.49 318.26-3.83L318.26-3.83Q317.09-6.27 316.89-10.01L316.89-10.01Q316.82-11.72 316.82-13.78 316.82-15.84 316.85-17.94 316.89-20.04 317.16-21.83 317.43-23.61 318-25.04 318.58-26.46 319.65-27.47L319.65-27.47Q321.87-29.54 326.5-29.54 331.12-29.54 336.35-27.05ZM336.23-6.08L336.23-23.68Q331.83-25.88 327.73-25.88L327.73-25.88Q324.75-25.88 323.8-25.39 322.85-24.9 322.35-24.12 321.85-23.34 321.53-21.97L321.53-21.97Q320.97-19.41 320.97-13.53L320.97-13.53 320.97-12.99Q320.97-7.57 322.31-5.4L322.31-5.4Q323.65-3.17 327.22-3.17L327.22-3.17 327.58-3.17Q330.95-3.17 334.47-5.03L334.47-5.03Q335.47-5.54 336.23-6.08L336.23-6.08ZM385.66-19.41L385.66-10.3Q385.66-5.44 386.12-0.2L386.12-0.2 382.51 0.1 381.9-3.3Q378.8-0.81 373.7 0.17L373.7 0.17Q372.04 0.49 370.74 0.49 369.45 0.49 368.46 0.37 367.47 0.24 366.56-0.11 365.64-0.46 364.86-1.1 364.08-1.73 363.49-2.78L363.49-2.78Q362.25-5 362.25-8.12 362.25-11.23 362.7-12.95 363.15-14.67 364.2-15.82L364.2-15.82Q366.28-18.09 371.18-18.09 376.09-18.09 381.66-16.24L381.66-16.24 381.66-19.41Q381.66-24.71 377.29-25.68L377.29-25.68Q375.87-26 374.04-26L374.04-26Q369.86-26 365.37-24.34L365.37-24.34 364.47-27.86Q365.71-28.69 370.82-29.35L370.82-29.35Q372.43-29.54 374.69-29.54 376.95-29.54 379.12-29 381.29-28.47 382.73-27.25L382.73-27.25Q385.66-24.83 385.66-19.41L385.66-19.41ZM381.56-13.18L381.56-13.18Q375.85-14.62 371.01-14.62L371.01-14.62Q368.03-14.62 367.06-12.92L367.06-12.92Q366.4-11.72 366.4-9.38 366.4-7.03 366.65-5.98 366.91-4.93 367.5-4.25L367.5-4.25Q368.64-2.95 371.28-2.95L371.28-2.95Q375.41-2.95 379.46-5.08L379.46-5.08Q380.7-5.71 381.71-6.49L381.71-6.49Q381.56-9.13 381.56-13.18ZM410.46-25.73L410.46-25.73Q405.7-25.73 400.77-22.92L400.77-22.92 400.77 0 396.72 0 396.72-29.05 400.28-29.05 400.67-26.05Q403.33-28.22 407.29-29.15L407.29-29.15Q408.9-29.54 411.07-29.54 413.25-29.54 414.91-29.04 416.57-28.54 417.54-27.44L417.54-27.44Q419.33-25.46 419.33-20.24L419.33-20.24 419.33 0 415.22 0 415.22-19.48Q415.22-23 414.54-24.01 413.86-25.02 412.92-25.38 411.98-25.73 410.46-25.73ZM449.47 0.1L448.89-3.25Q443.74 0.49 438.41 0.49L438.41 0.49Q432.53 0.49 430.58-3.83L430.58-3.83Q429.45-6.27 429.32-9 429.19-11.72 429.19-13.78 429.19-15.84 429.22-17.94 429.26-20.04 429.53-21.83 429.8-23.61 430.37-25.04 430.94-26.46 432.02-27.47L432.02-27.47Q434.24-29.54 439.35-29.54 444.47-29.54 448.6-27.76L448.6-27.76 448.6-41.55 452.65-41.94 452.65-13.35Q452.65-4.93 453.11-0.2L453.11-0.2 449.47 0.1ZM448.57-13.55L448.6-24.41Q444.2-25.88 440.1-25.88L440.1-25.88Q437.12-25.88 436.17-25.39 435.22-24.9 434.72-24.12 434.22-23.34 433.9-21.97L433.9-21.97Q433.34-19.41 433.34-13.53L433.34-13.53 433.34-12.99Q433.34-7.5 434.53-5.4L434.53-5.4Q435.83-3.17 439.34-3.17L439.34-3.17 439.71-3.17Q443.08-3.17 446.89-5.32L446.89-5.32Q447.94-5.91 448.69-6.49L448.69-6.49 448.69-6.54Q448.57-8.81 448.57-13.55L448.57-13.55ZM474.08-2.39L475.84-5.76Q480.87-2.95 485.94-2.95L485.94-2.95Q490.17-2.95 490.9-5.96L490.9-5.96Q491.14-6.98 491.14-8.46 491.14-9.94 490.8-10.75 490.46-11.57 489.65-11.98 488.85-12.38 487.52-12.57 486.19-12.77 484.14-13.12 482.09-13.48 480.38-13.92 478.67-14.36 477.47-15.19L477.47-15.19Q474.93-16.97 475.03-21.19L475.03-21.19 475.03-21.8Q475.03-26.25 477.96-28.13L477.96-28.13Q480.79-29.98 487.31-29.39L487.31-29.39Q491.75-28.98 494.39-27.86L494.39-27.86 493.24-24.17Q490.31-25.42 486.21-25.98L486.21-25.98Q484.94-26.15 483.83-26.15 482.72-26.15 481.82-25.98 480.91-25.81 480.3-25.34L480.3-25.34Q479.13-24.39 479.08-21.8L479.08-21.8Q479.01-18.75 480.79-17.92L480.79-17.92Q482.5-17.11 484.85-16.81 487.19-16.5 488.68-16.27 490.17-16.04 491.39-15.65 492.61-15.26 493.49-14.4L493.49-14.4Q495.32-12.67 495.27-8.37L495.27-8.37Q495.15-0.88 489.02 0.17L489.02 0.17Q487.16 0.49 485.31 0.49 483.45 0.49 481.9 0.26 480.35 0.02 478.94-0.39L478.94-0.39Q476.25-1.15 474.08-2.39L474.08-2.39ZM508.84-1.73L508.84-1.73 508.84 11.11 504.79 11.11 504.79-29.05 508.08-29.05 508.55-26.05Q511.41-28.2 516-29.2L516-29.2Q517.66-29.54 519.61-29.54 521.56-29.54 523.06-29.03 524.56-28.52 525.54-27.6 526.52-26.68 527.05-25.42 527.59-24.15 527.86-22.66L527.86-22.66Q528.2-20.61 528.2-16.11L528.2-16.11 528.2-15.55Q528.2-9.84 527.81-7.64 527.42-5.44 526.79-4.02 526.15-2.59 525.03-1.59L525.03-1.59Q522.71 0.49 517.85 0.49 512.99 0.49 508.84-1.73ZM508.84-22.92L508.84-5.08Q512.99-3.17 517.56-3.17L517.56-3.17Q520.54-3.17 521.9-4.27L521.9-4.27Q523.76-5.79 523.98-11.33L523.98-11.33Q524.05-13.16 524.05-15.53L524.05-15.53 524.05-16.06Q524.05-21.68 523.08-23.58L523.08-23.58Q521.98-25.76 518.53-25.76L518.53-25.76 518.17-25.76Q514.58-25.76 510.72-23.97L510.72-23.97Q509.6-23.46 508.84-22.92L508.84-22.92ZM551.03-25.73L551.03-25.73Q547.05-25.73 542.34-22.92L542.34-22.92 542.34 0 538.28 0 538.28-29.05 541.85-29.05 542.24-26.05Q546.51-29.54 551.81-29.54L551.81-29.54Q554.84-29.54 556.58-28.67 558.33-27.81 559.11-25.83L559.11-25.83Q564.5-29.54 569.36-29.54L569.36-29.54Q573.95-29.54 575.73-27.44L575.73-27.44Q577.44-25.42 577.44-20.24L577.44-20.24 577.44 0 573.34 0 573.34-19.48Q573.34-23 572.66-24.01 571.97-25.02 571.03-25.38 570.09-25.73 568.84-25.73 567.58-25.73 566.47-25.5 565.36-25.27 564.21-24.88L564.21-24.88Q561.89-24.07 559.77-22.83L559.77-22.83Q559.89-21.36 559.89-20.24L559.89-20.24 559.89 0 555.79 0 555.79-19.48Q555.79-23 555.1-24.01 554.42-25.02 553.48-25.38 552.54-25.73 551.03-25.73ZM613.47-25.73L613.47-25.73Q609.49-25.73 604.78-22.92L604.78-22.92 604.78 0 600.73 0 600.73-29.05 604.29-29.05 604.68-26.05Q608.96-29.54 614.25-29.54L614.25-29.54Q617.28-29.54 619.03-28.67 620.77-27.81 621.55-25.83L621.55-25.83Q626.95-29.54 631.81-29.54L631.81-29.54Q636.4-29.54 638.18-27.44L638.18-27.44Q639.89-25.42 639.89-20.24L639.89-20.24 639.89 0 635.79 0 635.79-19.48Q635.79-23 635.1-24.01 634.42-25.02 633.48-25.38 632.54-25.73 631.28-25.73 630.03-25.73 628.91-25.5 627.8-25.27 626.66-24.88L626.66-24.88Q624.34-24.07 622.21-22.83L622.21-22.83Q622.34-21.36 622.34-20.24L622.34-20.24 622.34 0 618.23 0 618.23-19.48Q618.23-23 617.55-24.01 616.87-25.02 615.93-25.38 614.99-25.73 613.47-25.73ZM672.89-19.41L672.89-10.3Q672.89-5.44 673.36-0.2L673.36-0.2 669.74 0.1 669.13-3.3Q666.03-0.81 660.93 0.17L660.93 0.17Q659.27 0.49 657.98 0.49 656.68 0.49 655.69 0.37 654.71 0.24 653.79-0.11 652.87-0.46 652.09-1.1 651.31-1.73 650.73-2.78L650.73-2.78Q649.48-5 649.48-8.12 649.48-11.23 649.93-12.95 650.38-14.67 651.43-15.82L651.43-15.82Q653.51-18.09 658.42-18.09 663.32-18.09 668.89-16.24L668.89-16.24 668.89-19.41Q668.89-24.71 664.52-25.68L664.52-25.68Q663.1-26 661.27-26L661.27-26Q657.1-26 652.61-24.34L652.61-24.34 651.7-27.86Q652.95-28.69 658.05-29.35L658.05-29.35Q659.66-29.54 661.92-29.54 664.18-29.54 666.35-29 668.52-28.47 669.96-27.25L669.96-27.25Q672.89-24.83 672.89-19.41L672.89-19.41ZM668.79-13.18L668.79-13.18Q663.08-14.62 658.25-14.62L658.25-14.62Q655.27-14.62 654.29-12.92L654.29-12.92Q653.63-11.72 653.63-9.38 653.63-7.03 653.89-5.98 654.14-4.93 654.73-4.25L654.73-4.25Q655.88-2.95 658.51-2.95L658.51-2.95Q662.64-2.95 666.69-5.08L666.69-5.08Q667.94-5.71 668.94-6.49L668.94-6.49Q668.79-9.13 668.79-13.18ZM702.92-4.59L704.14-1.29Q700.75 0.49 694.84 0.49L694.84 0.49Q691.35 0.49 689.71-0.05L689.71-0.05Q685.54-1.46 684.24-4.86L684.24-4.86Q683.34-7.23 683.19-9.96 683.05-12.7 683.05-14.58 683.05-16.46 683.15-18.25 683.24-20.04 683.62-21.7 684-23.36 684.78-24.79 685.56-26.22 686.91-27.29L686.91-27.29Q689.81-29.54 695.25-29.54L695.25-29.54Q699.26-29.54 702.63-28.37L702.63-28.37Q703.53-28.08 704-27.81L704-27.81 702.77-24.19Q698.09-26 695.1-26 692.11-26 690.7-25.32 689.3-24.63 688.52-23.24L688.52-23.24Q687.2-20.85 687.2-14.45L687.2-14.45Q687.2-11.89 687.37-9.78 687.54-7.67 688.22-6.15L688.22-6.15Q689.66-3.03 694.17-3.03 698.67-3.03 702.92-4.59L702.92-4.59ZM726.87-25.76L726.87-25.76Q722.01-25.76 717.23-22.95L717.23-22.95 717.23 0 713.17 0 713.17-41.55 717.13-41.94 717.13-26.05Q719.64-28.2 723.67-29.15L723.67-29.15Q725.28-29.54 727.48-29.54 729.68-29.54 731.34-29.04 733-28.54 733.97-27.44L733.97-27.44Q735.73-25.46 735.73-20.24L735.73-20.24 735.73 0 731.63 0 731.63-19.51Q731.63-23.02 730.95-24.04 730.26-25.05 729.32-25.4 728.38-25.76 726.87-25.76ZM749.35-36.01L749.35-36.01Q747.72-36.01 747.25-36.47L747.25-36.47Q746.52-37.23 746.52-38.56 746.52-39.89 746.68-40.47 746.84-41.04 747.15-41.36L747.15-41.36Q747.74-41.94 748.95-41.94 750.16-41.94 750.68-41.82 751.21-41.7 751.55-41.36L751.55-41.36Q752.13-40.77 752.13-39.44 752.13-38.11 752-37.54 751.87-36.96 751.55-36.62L751.55-36.62Q750.94-36.01 749.35-36.01ZM747.42 0L747.37-29.05 751.38-29.05 751.38 0 747.42 0ZM776.86-25.73L776.86-25.73Q772.1-25.73 767.17-22.92L767.17-22.92 767.17 0 763.12 0 763.12-29.05 766.68-29.05 767.07-26.05Q769.73-28.22 773.69-29.15L773.69-29.15Q775.3-29.54 777.47-29.54 779.65-29.54 781.31-29.04 782.97-28.54 783.94-27.44L783.94-27.44Q785.73-25.46 785.73-20.24L785.73-20.24 785.73 0 781.62 0 781.62-19.48Q781.62-23 780.94-24.01 780.26-25.02 779.32-25.38 778.38-25.73 776.86-25.73ZM817.97-5.03L819.17-1.54Q814.12 0.49 808.01 0.49L808.01 0.49Q804.47 0.49 802.01-0.24L802.01-0.24Q798.08-1.37 796.78-4.88L796.78-4.88Q795.59-8.18 795.59-14.65L795.59-14.65 795.59-15.89Q795.59-23.63 798.81-26.76L798.81-26.76Q801.71-29.54 808.5-29.54L808.5-29.54Q815.12-29.54 817.54-26.27L817.54-26.27Q818.71-24.68 819.09-22.42 819.46-20.17 819.46-18.12L819.46-18.12Q819.46-14.92 819.32-13.16L819.32-13.16Q815.87-13.01 813.14-13.01L813.14-13.01Q813.14-13.01 809.21-13.01L809.21-13.01Q803.06-13.01 799.74-13.55L799.74-13.55Q799.74-7.93 801.15-5.71L801.15-5.71Q802.89-3 808.06-3 813.24-3 817.97-5.03L817.97-5.03ZM799.74-16.41L815.34-16.41 815.34-18.75Q815.34-22.58 813.85-24.22L813.85-24.22Q812.19-26.05 808.11-26.05L808.11-26.05Q803.23-26.05 801.45-23.93L801.45-23.93Q799.74-21.9 799.74-16.41L799.74-16.41ZM828.01-2.39L829.76-5.76Q834.79-2.95 839.87-2.95L839.87-2.95Q844.1-2.95 844.83-5.96L844.83-5.96Q845.07-6.98 845.07-8.46 845.07-9.94 844.73-10.75 844.39-11.57 843.58-11.98 842.78-12.38 841.45-12.57 840.12-12.77 838.06-13.12 836.01-13.48 834.3-13.92 832.6-14.36 831.4-15.19L831.4-15.19Q828.86-16.97 828.96-21.19L828.96-21.19 828.96-21.8Q828.96-26.25 831.89-28.13L831.89-28.13Q834.72-29.98 841.24-29.39L841.24-29.39Q845.68-28.98 848.32-27.86L848.32-27.86 847.17-24.17Q844.24-25.42 840.14-25.98L840.14-25.98Q838.87-26.15 837.76-26.15 836.65-26.15 835.75-25.98 834.84-25.81 834.23-25.34L834.23-25.34Q833.06-24.39 833.01-21.8L833.01-21.8Q832.94-18.75 834.72-17.92L834.72-17.92Q836.43-17.11 838.77-16.81 841.12-16.5 842.61-16.27 844.1-16.04 845.32-15.65 846.54-15.26 847.42-14.4L847.42-14.4Q849.25-12.67 849.2-8.37L849.2-8.37Q849.08-0.88 842.95 0.17L842.95 0.17Q841.09 0.49 839.24 0.49 837.38 0.49 835.83 0.26 834.28 0.02 832.86-0.39L832.86-0.39Q830.18-1.15 828.01-2.39L828.01-2.39ZM884.13-25.73L884.13-25.73Q880.15-25.73 875.44-22.92L875.44-22.92 875.44 0 871.38 0 871.38-29.05 874.95-29.05 875.34-26.05Q879.61-29.54 884.91-29.54L884.91-29.54Q887.94-29.54 889.68-28.67 891.43-27.81 892.21-25.83L892.21-25.83Q897.61-29.54 902.46-29.54L902.46-29.54Q907.05-29.54 908.84-27.44L908.84-27.44Q910.55-25.42 910.55-20.24L910.55-20.24 910.55 0 906.44 0 906.44-19.48Q906.44-23 905.76-24.01 905.08-25.02 904.14-25.38 903.2-25.73 901.94-25.73 900.68-25.73 899.57-25.5 898.46-25.27 897.31-24.88L897.31-24.88Q894.99-24.07 892.87-22.83L892.87-22.83Q892.99-21.36 892.99-20.24L892.99-20.24 892.99 0 888.89 0 888.89-19.48Q888.89-23 888.21-24.01 887.52-25.02 886.58-25.38 885.64-25.73 884.13-25.73ZM943.55-19.41L943.55-10.3Q943.55-5.44 944.01-0.2L944.01-0.2 940.4 0.1 939.79-3.3Q936.69-0.81 931.59 0.17L931.59 0.17Q929.93 0.49 928.63 0.49 927.34 0.49 926.35 0.37 925.36 0.24 924.45-0.11 923.53-0.46 922.75-1.1 921.97-1.73 921.38-2.78L921.38-2.78Q920.14-5 920.14-8.12 920.14-11.23 920.59-12.95 921.04-14.67 922.09-15.82L922.09-15.82Q924.17-18.09 929.07-18.09 933.98-18.09 939.55-16.24L939.55-16.24 939.55-19.41Q939.55-24.71 935.18-25.68L935.18-25.68Q933.76-26 931.93-26L931.93-26Q927.75-26 923.26-24.34L923.26-24.34 922.36-27.86Q923.6-28.69 928.71-29.35L928.71-29.35Q930.32-29.54 932.58-29.54 934.83-29.54 937.01-29 939.18-28.47 940.62-27.25L940.62-27.25Q943.55-24.83 943.55-19.41L943.55-19.41ZM939.45-13.18L939.45-13.18Q933.74-14.62 928.9-14.62L928.9-14.62Q925.92-14.62 924.95-12.92L924.95-12.92Q924.29-11.72 924.29-9.38 924.29-7.03 924.54-5.98 924.8-4.93 925.39-4.25L925.39-4.25Q926.53-2.95 929.17-2.95L929.17-2.95Q933.3-2.95 937.35-5.08L937.35-5.08Q938.59-5.71 939.6-6.49L939.6-6.49Q939.45-9.13 939.45-13.18ZM954.53 0L954.53-41.46 958.59-41.89 958.59-16.7Q959.56-16.5 960.94-17.7 962.32-18.9 963.4-19.98 964.47-21.07 965.62-22.36L965.62-22.36Q969.74-27.12 971.04-29.05L971.04-29.05 975.87-29.05Q975.34-27.83 973.41-25.59L973.41-25.59 970.13-21.9Q967.47-19.04 965.87-17.68 964.28-16.31 963.76-16.11L963.76-16.11 963.76-15.87 964.5-15.5Q966.08-14.75 968.65-11.47L968.65-11.47 977.75 0 972.63 0 966.42-8.13Q962.13-13.75 959.86-13.94L959.86-13.94 959.32-13.99Q959.08-14.01 958.88-14 958.68-13.99 958.59-13.99L958.59-13.99 958.59 0 954.53 0ZM1005.26-5.03L1006.46-1.54Q1001.41 0.49 995.3 0.49L995.3 0.49Q991.76 0.49 989.3-0.24L989.3-0.24Q985.37-1.37 984.07-4.88L984.07-4.88Q982.88-8.18 982.88-14.65L982.88-14.65 982.88-15.89Q982.88-23.63 986.1-26.76L986.1-26.76Q989-29.54 995.79-29.54L995.79-29.54Q1002.41-29.54 1004.82-26.27L1004.82-26.27Q1006-24.68 1006.38-22.42 1006.75-20.17 1006.75-18.12L1006.75-18.12Q1006.75-14.92 1006.61-13.16L1006.61-13.16Q1003.16-13.01 1000.43-13.01L1000.43-13.01Q1000.43-13.01 996.5-13.01L996.5-13.01Q990.35-13.01 987.03-13.55L987.03-13.55Q987.03-7.93 988.44-5.71L988.44-5.71Q990.18-3 995.35-3 1000.53-3 1005.26-5.03L1005.26-5.03ZM987.03-16.41L1002.63-16.41 1002.63-18.75Q1002.63-22.58 1001.14-24.22L1001.14-24.22Q999.48-26.05 995.4-26.05L995.4-26.05Q990.52-26.05 988.74-23.93L988.74-23.93Q987.03-21.9 987.03-16.41L987.03-16.41ZM1027.43-25.51L1027.43-25.51Q1024.3-25.51 1021.06-22.39L1021.06-22.39 1021.06 0 1017 0 1017-29.05 1020.57-29.05 1020.96-25.2Q1022.11-26.98 1023.44-27.98 1024.77-28.98 1025.62-29.2L1025.62-29.2Q1026.84-29.54 1027.94-29.54 1029.04-29.54 1030.7-29.1L1030.7-29.1 1030.33-25.22Q1029.09-25.51 1027.43-25.51Z" opacity="1" transform="matrix(1,0,0,1,0,0)" fill="#ffffff" class="slogan-text-1" data-fill-palette-color="quaternary" id="text-1"></path></svg></g></svg></g></svg></g></svg></g><g transform="matrix(1,0,0,1,0,23.1015129823424)"><svg viewBox="0 0 131.7319166783831 85.693160575429" height="85.693160575429" width="131.7319166783831"><g><svg xmlns="http://www.w3.org/2000/svg" xmlns:xlink="http://www.w3.org/1999/xlink" xml:space="preserve" version="1.1" style="shape-rendering:geometricPrecision;text-rendering:geometricPrecision;image-rendering:optimizeQuality;" viewBox="1539.0943317449753 9738.404163359417 46921.8177974079 30523.194138449173" x="0" y="0" fill-rule="evenodd" clip-rule="evenodd" height="85.693160575429" width="131.7319166783831" class="icon-icon-0" data-fill-palette-color="quaternary" id="icon-0"><g fill="#ffffff" data-fill-palette-color="quaternary"><path class="" d="M22719.95 11992.78l5855.95-2101.79c588.98-211.4 600.19-198.41 1179.92 9.66l5648.89 2027.48c616.56 221.28 615.7 271.99 631.25 834.75 70.68 2546.27 1144.65 4847.57 2837.3 6530.89 1700.56 1691.16 4025.97 2759.19 6586.14 2826.59 416.16 10.92 532.81-6.79 708.57 470.99l2253.45 6126.26c65.47 178.01 42.86 413.05-19.08 590l-2084.62 5955.28c-219.93 628.27-484.25 683.36-1054.83 672.55-6293.74-119.61-11980.54-2719.35-16123.8-6862.6-4203.44-4203.44-6818.22-9995.61-6866.24-16398.49-3.05-408.83 39.61-535.31 447.1-681.57z m16419.59 25997.65c-73.58-135.11-23.71-304.31 111.4-377.88 135.11-73.58 304.31-23.71 377.88 111.4l931.84 1711.23-1755.61 801.16c-139.93 63.93-305.21 2.32-369.15-137.61-63.93-139.93-2.32-305.21 137.61-369.15l1211.91-553.05-645.88-1186.1z m-20931.95-19084.57c-75.39 134.51-245.56 182.42-380.06 107.03-134.51-75.39-182.42-245.56-107.03-380.07l986.23-1758.65 1634.95 1133.19c126.67 87.46 158.45 261.05 71 387.72-87.46 126.66-261.06 158.45-387.72 70.99l-1131.1-783.97-686.27 1223.76z m20144.01 20119.22c210.04 55.21 399.75-138.15 340.61-347.28-28.29-95.41-100.65-167.2-196.99-193.14-357.58-95.89-711.26-197.43-1065.18-306.04-208.34-63.18-405.62 125.12-352.41 336.52 25.08 95.7 94.93 169.12 189.53 198.42 360.31 110.56 720.41 213.9 1084.44 311.52z m-18934.41-20080.04c-21.58-110.71-106.08-197.03-216.37-220.71-196.35-40.86-369.91 129.42-332.75 326.37 72.39 371.32 151.83 739.05 241.4 1106.64 53.41 215.04 323.05 285.64 475.32 124.51 65.18-70.25 90.18-165.13 67.63-258.33-87.37-358.15-164.72-716.67-235.23-1078.48z m686.93 2673.08c-31.5-96.99-111.71-168.04-211.53-188.27-209.83-41.12-385.21 157.01-320.55 360.26 117.23 359.57 240.87 714.61 374.06 1068.61 67.61 176 282.55 236.42 432.49 122.13 97.37-75.83 134-204.81 90.37-320.39-129.95-345.22-250.52-691.65-364.84-1042.34z m1003.94 2570.79c-86.78-183.6-329.51-217.83-464.26-65.75-72.6 84.33-89.45 200.65-42.66 301.82 158.5 342.6 323.16 680.15 496.38 1015.56 103.33 197.01 382.53 201.66 492.08 7.73 46.08-83.32 47.68-180.79 4.14-265.52-169.49-328.14-330.59-658.58-485.68-993.84z m1297.43 2438.85c-53.78-87.33-147.66-136.65-249.87-133.26-213.48 9.9-337.91 243.05-226.82 425.55 196.47 322.11 398.29 638.82 608.12 952.4 122.6 180.53 392.72 159.22 485.74-38.46 40.63-89.8 33.44-191.43-21.7-273.55-205.45-307.11-403.07-617.25-595.47-932.68z m1563.42 2278.82c-60.71-77.09-153.68-116.78-251.36-106.35-217.39 24.63-323.87 276.63-190.13 449.54 230.75 298.23 465.8 591.27 708.53 879.88 139.66 163.59 401.88 117.09 476.4-85 34.12-94.98 15.58-198.57-49.27-275.9-237.8-282.85-468.05-569.91-694.17-862.17z m1802.62 2097.5c-155.9-161.47-426.01-84.44-475.12 134.29-19.31 91.56 6.62 184.94 71.46 252.66 261.9 272.52 526.69 537.96 798.54 800.56 116.88 110.88 301.54 101.43 406.13-21.26 96.1-112.89 86.9-280.88-20.07-383.28-265.86-256.78-524.82-516.48-780.94-782.97z m2012.85 1895.67c-99.48-83.43-241.85-88.06-346.42-11.09-145.33 108.99-152.04 320.78-13.95 438.67 287.6 243.47 579.05 480.77 876.06 712.68 157.96 122.17 387.7 45.44 441.34-146.89 29.31-110.48-8.24-223.8-98.14-294.58-291.2-227.38-576.91-460.08-858.89-698.79z m2198.52 1679.36c-165.31-112.26-389.57-21.65-431.51 173.65-22.41 112.07 21.87 222.9 116 288.01 310.6 213.22 625.26 419.03 943.97 619.89 169.21 104.99 388.75 7.31 424.05-188.83 19.32-112.14-30.5-224.36-126.96-284.91-298.77-188.24-592.48-381.01-884.46-579.61l-41.09-28.2z m2357.52 1447.84c-84.93-46.05-185.49-45.41-269.99 1.31-192.08 108.51-190.64 383.66 2.45 489.72 329.77 180.57 665.02 354.26 1001.63 521.69 94.15 46.1 202.79 36.84 287.99-24.11 170.04-124.04 148.44-383.5-40.05-477.1-330.01-164.16-658.73-334.48-982.03-511.51z m2490.98 1203.5c-126.06-52.45-269.88-7.79-343.82 107.02-93.33 146.66-32.8 340.86 127.24 408.53 346.93 146.58 696.48 286.05 1048.94 418.74 135.19 49.8 283.98-8.73 348.45-137.67 73.48-149.06 2.8-327.42-152.58-386.08-345.52-130.1-688.13-266.85-1028.23-410.54z m-25987.61-22077.38l-53.92 23908.21 5598.26-2016.4 14.91-23887.1-5559.25 1995.29z m-945.01 23854.38l53.84-23869.48-5518.78-1980.77 45.98 23899.06 5418.96 1951.19z m7409.45-26203.96l-15.5 24867.58-6337.63 2277.94c-561.88 201.96-592.65 172.39-1143.31-25.87l-6221.97-2240.35-48.4-25155.48c-22.61-225.03 122.08-418.57 327.71-492.29l6287.39-2256.65c182.66-65.52 409.63-41.56 589.83 23.11l5983.02 2147.39c571.72 205.19 579.19 324.47 578.86 854.62z m-6898.32-2169.41l-5184.17 1860.68 5166.98 1854.51c7.03 2.52 20.03 4.67 35.87 6.17l5184.17-1860.68-5166.98-1854.5c-7.03-2.52-20.03-4.67-35.87-6.18z m36595.53 12360.61c-2624.11-175.82-4999.05-1315.88-6761.26-3068.35-1770.24-1760.46-2921.68-4138.18-3086.31-6776.35l-5556.21 1994.2c561.13 3440.18 2197.6 6519.64 4553.51 8881.95 2359.56 2365.96 5441.07 4011.75 8886.16 4579.55l1964.11-5611z m-1930.78 6520.19c-3705.69-570.75-7022.02-2322.74-9552.07-4859.65-2516.99-2523.84-4255.38-5825.13-4824.58-9512.87l-5521.1-1981.6c172.96 5962.48 2660 11344.75 6594.76 15279.51 3946.77 3946.77 9349.89 6437.2 15334.13 6596.49l-2031.14-5521.88z m770.86-492.18l1901.75 5170.09 1812.8-5178.75c21.77-62.21-1717.23-4718.7-1895.36-5202.98l-1812.8 5178.75c-2.81 8.03-4.99 19.72-6.39 32.89z m-15060.32-18260.17l-4826.31 1732.23 5166.97 1854.51c7.03 2.51 20.03 4.66 35.87 6.17l5184.18-1860.68-4830.29-1733.65c-449.81-161.45-269.66-163.97-730.42 1.42z" fill="#ffffff" fill-rule="nonzero" data-fill-palette-color="quaternary"></path></g></svg></g></svg></g></svg></g></svg></g></svg></g></svg></g><defs></defs></svg><rect width="342.85155851775386" height="342.85155851775386" fill="none" stroke="none" visibility="hidden"></rect></g></svg></g></svg>